<?xml version="1.0" encoding="UTF-8" standalone="no"?>
<svg
   version="1.1"
   width="16.004639"
   height="16"
   id="svg7384"
   inkscape:version="1.3.2 (091e20ef0f, 2023-11-25)"
   sodipodi:docname="core.svg"
   viewBox="0 0 16.004639 16"
   shape-rendering="crispEdges"
   xmlns:inkscape="http://www.inkscape.org/namespaces/inkscape"
   xmlns:sodipodi="http://sodipodi.sourceforge.net/DTD/sodipodi-0.dtd"
   xmlns="http://www.w3.org/2000/svg"
   xmlns:svg="http://www.w3.org/2000/svg"
   xmlns:rdf="http://www.w3.org/1999/02/22-rdf-syntax-ns#"
   xmlns:cc="http://creativecommons.org/ns#"
   xmlns:dc="http://purl.org/dc/elements/1.1/">
  <metadata
     id="metadata90">
    <rdf:RDF>
      <cc:Work
         rdf:about="">
        <dc:format>image/svg+xml</dc:format>
        <dc:type
           rdf:resource="http://purl.org/dc/dcmitype/StillImage" />
        <dc:title>Gnome Symbolic Icon Theme</dc:title>
      </cc:Work>
    </rdf:RDF>
  </metadata>
  <sodipodi:namedview
     pagecolor="#f4f5f6"
     bordercolor="#666666"
     borderopacity="1"
     objecttolerance="10"
     gridtolerance="10"
     guidetolerance="10"
     inkscape:pageopacity="1"
     inkscape:pageshadow="2"
     inkscape:window-width="3440"
     inkscape:window-height="1371"
     id="namedview88"
     showgrid="false"
     inkscape:zoom="4"
     inkscape:cx="303"
     inkscape:cy="224.875"
     inkscape:window-x="0"
     inkscape:window-y="0"
     inkscape:window-maximized="1"
     inkscape:current-layer="layer12"
     showborder="false"
     inkscape:snap-nodes="true"
     inkscape:snap-bbox="true"
     inkscape:bbox-paths="true"
     showguides="true"
     inkscape:guide-bbox="true"
     inkscape:snap-to-guides="true"
     inkscape:snap-grids="true"
     inkscape:snap-global="true"
     inkscape:object-nodes="true"
     inkscape:snap-bbox-midpoints="false"
     inkscape:object-paths="true"
     inkscape:snap-others="true"
     inkscape:bbox-nodes="true"
     inkscape:snap-bbox-edge-midpoints="true"
     inkscape:measure-start="56,310.597"
     inkscape:measure-end="0,0"
     inkscape:document-rotation="0"
     inkscape:snap-intersection-paths="true"
     inkscape:pagecheckerboard="false"
     inkscape:snap-smooth-nodes="true"
     inkscape:snap-midpoints="true"
     inkscape:snap-page="true"
     inkscape:snap-object-midpoints="true"
     inkscape:snap-center="true"
     inkscape:snap-text-baseline="true"
     inkscape:showpageshadow="2"
     inkscape:deskcolor="#f4f5f6">
    <inkscape:grid
       type="xygrid"
       id="grid4866"
       empspacing="4"
       visible="false"
       enabled="true"
       snapvisiblegridlinesonly="true"
       spacingx="1px"
       spacingy="1px"
       color="#8e8eb0"
       opacity="0.29411765"
       empcolor="#3f3fff"
       empopacity="0.45882353"
       originx="-599.99971"
       originy="-39.999767"
       units="px" />
    <inkscape:grid
       type="xygrid"
       id="grid25939"
       empspacing="4"
       spacingy="0.5"
       spacingx="0.5"
       dotted="false"
       originx="-599.99971"
       originy="-39.999767"
       units="px"
       visible="false" />
  </sodipodi:namedview>
  <title
     id="title9167">Gnome Symbolic Icon Theme</title>
  <defs
     id="defs7386" />
  <g
     inkscape:groupmode="layer"
     id="layer21"
     inkscape:label="status"
     style="display:inline"
     transform="translate(-599.99969,-39.999767)">
    <g
       transform="translate(588.01713,-628.00481)"
       id="g53177"
       inkscape:label="star outline favorite bookmark">
      <title
         id="title53171">non-starred</title>
      <rect
         y="668.00458"
         x="11.982551"
         height="16"
         width="16"
         id="rect53173"
         style="fill:none" />
      <path
         style="fill:#2e3434;fill-opacity:0.34902"
         d="m 267.57617,-225.29883 a 0.76607657,0.76607657 0 0 0 -0.63867,0.62891 l -0.58008,3.45898 -3.47461,0.53321 a 0.76607657,0.76607657 0 0 0 -0.22265,1.44531 l 3.04687,1.5039 -0.625,3.42383 a 0.76607657,0.76607657 0 0 0 1.26563,0.70899 l 2.7207,-2.43946 3.25586,1.4961 a 0.76607657,0.76607657 0 0 0 0.99414,-1.0586 l -1.64649,-3.06836 2.44922,-2.38281 a 0.76607657,0.76607657 0 0 0 -0.65039,-1.30469 l -3.52539,0.54102 -1.57031,-3.07812 a 0.76607657,0.76607657 0 0 0 -0.79883,-0.40821 z m 0.49024,3.16992 0.76757,1.50586 a 0.76607657,0.76607657 0 0 0 0.79688,0.41016 l 1.70508,-0.26172 -1.14453,1.11133 a 0.76607657,0.76607657 0 0 0 -0.14063,0.91211 l 0.83984,1.56836 -1.64062,-0.75391 a 0.76607657,0.76607657 0 0 0 -0.83008,0.125 l -1.42773,1.28125 0.32617,-1.79101 a 0.76607657,0.76607657 0 0 0 -0.41406,-0.82422 l -1.38672,-0.68555 1.62109,-0.25 a 0.76607657,0.76607657 0 0 0 0.63867,-0.63086 z"
         id="path53175"
         transform="matrix(1.2901904,0.20249111,-0.20265464,1.2891493,-370.89741,904.26834)" />
      <g
         id="path2905"
         transform="matrix(1.2901904,0.20249111,-0.20265464,1.2891493,-370.89741,904.26834)" />
    </g>
  </g>
</svg>
